<?xml version="1.0" encoding="UTF-8"?>
<svg id="Layer_1" data-name="Layer 1" xmlns="http://www.w3.org/2000/svg" viewBox="0 0 695.1 623.3">
  <defs>
    <style>
      .cls-1 {
        fill: #fff;
      }

      .cls-2 {
        fill: #dbdbdb;
      }

      .cls-3 {
        fill: #f69074;
      }

      .cls-4 {
        fill: #f2b3c1;
      }

      .cls-5 {
        fill: #ebebeb;
      }

      .cls-6 {
        fill: #e6e7e8;
      }

      .cls-7 {
        fill: #fbe493;
      }

      .cls-8 {
        fill: #002346;
      }

      .cls-9 {
        fill: #7cd295;
      }

      .cls-10 {
        fill: #231f20;
      }
    </style>
  </defs>
  <g id="a">
    <g id="Ventana">
      <path class="cls-1" d="m116.4,52.3c-14.9,0-31.5-2.4-46.7-9.8-1.7.8-15.7,7-33.4,7-11.2,0-24-2.5-36.1-10.5l-.2-.1V.5h238.7v39.5l-.1.1c-.3.2-26.2,23-74.6,4.8-1.8.7-22.4,7.4-47.6,7.4h0Zm-46.7-10.7l.2.1c41.8,20.5,93.6,2.6,94.1,2.4l.1-.1.1.1c46.2,17.4,71.7-2.8,73.8-4.5V1.3H.9v37.2c31.8,20.9,68.3,3.4,68.6,3.2l.2-.1h0Z"/>
      <path class="cls-1" d="m116.4,59.5c-14.9,0-31.5-2.4-46.7-9.8-1.7.8-15.7,7-33.4,7-11.2,0-24-2.5-36.1-10.5l-.2-.1v-7.4h.8v7c31.8,20.9,68.3,3.4,68.6,3.2l.2-.1.2.1c41.8,20.5,93.6,2.6,94.1,2.4l.1-.1.1.1c46.2,17.4,71.7-2.8,73.8-4.5v-7h.8v7.4l-.1.1c-.3.2-26.2,23-74.6,4.8-1.8.7-22.4,7.4-47.6,7.4h0Z"/>
      <path class="cls-1" d="m116.4,69.1c-14.9,0-31.5-2.4-46.7-9.8-1.7.8-15.7,7-33.4,7-11.2,0-24-2.5-36.1-10.5l-.2-.1v-9.8h.8v9.4c31.8,20.9,68.3,3.4,68.6,3.2l.2-.1.2.1c41.8,20.5,93.6,2.6,94.1,2.4l.1-.1.1.1c46.2,17.4,71.7-2.8,73.8-4.5v-9.4h.8v9.8l-.1.1c-.3.2-26.2,23-74.6,4.8-1.8.7-22.4,7.4-47.6,7.4h0Z"/>
      <polygon class="cls-1" points="227.1 349.7 10.4 349.7 10.4 60.7 11.2 60.7 11.2 348.9 226.3 348.9 226.3 63.4 227.1 63.4 227.1 349.7"/>
      <polygon class="cls-1" points="207.2 320.1 30.3 320.1 30.3 65.8 31.1 65.8 31.1 319.3 206.4 319.3 206.4 68.1 207.2 68.1 207.2 320.1"/>
      <rect class="cls-1" x="30.7" y="81.8" width="176.1" height=".8"/>
      <rect class="cls-1" x="30.7" y="161" width="176.1" height=".8"/>
      <rect class="cls-1" x="31.5" y="240.2" width="176.1" height=".8"/>
      <rect class="cls-1" x="88.8" y="65.8" width=".8" height="253.9"/>
      <rect class="cls-1" x="150.9" y="65.8" width=".8" height="253.9"/>
      <rect class="cls-1" x="2.87" y="334.06" width="35.7" height=".8" transform="translate(-268.32 164.92) rotate(-56.06)"/>
      <rect class="cls-1" x="216.41" y="316.7" width=".8" height="35.7" transform="translate(-149.71 177.73) rotate(-33.89)"/>
    </g>
    <rect class="cls-5" x="399.1" y="58" width="83.1" height="100.8"/>
    <rect class="cls-1" x="408.6" y="67.1" width="64.1" height="82.4"/>
    <rect class="cls-2" x="408.6" y="67.1" width="2.5" height="82.4"/>
    <rect class="cls-2" x="482.2" y="58" width="2.5" height="100.8"/>
    <rect class="cls-2" x="430.1" y="78.5" width="15.1" height="45"/>
    <path class="cls-5" d="m464.6,132h-41.9v-23.6h41.9v23.6Zm-40.4-1.6h38.7v-20.5h-38.7v20.5h0Z"/>
    <rect class="cls-2" x="639" y="67.1" width="2.5" height="82.4"/>
    <rect class="cls-5" x="514.3" y="58" width="83.1" height="100.8"/>
    <rect class="cls-1" x="523.8" y="67.1" width="64.1" height="82.4"/>
    <rect class="cls-2" x="523.8" y="67.1" width="2.5" height="82.4"/>
    <rect class="cls-2" x="597.4" y="58" width="2.5" height="100.8"/>
    <rect class="cls-5" x="549.6" y="88.4" width="13" height="32.7"/>
    <path class="cls-2" d="m577,131.7h-36.3v-24.1h36.3v24.1Zm-34.8-1.6h33.2v-21h-33.2v21h0Z"/>
    <g>
      <path class="cls-1" d="m686.4,105v-1c0-3.7-.6-7.5-1.8-11l7.2-4.2-7-12.1-7.3,4.3c-2.7-3-6-5.5-9.6-7.4l2.3-8.6-13.5-3.6-2.2,8.4c-.8,0-1.6-.1-2.4-.1-3.2,0-6.5.4-9.6,1.4l-4.5-7.9-12.1,7,4.3,7.4c-3.4,2.9-6.3,6.4-8.4,10.3l-8.8-2.3-3.6,13.5,8.4,2.2c-.1.9-.1,1.8-.1,2.7,0,3.6.6,7.2,1.7,10.7l-7.5,4.3,7,12.1,7.4-4.3c3,3.4,6.7,6.2,10.8,8.2l-2.1,7.9,13.5,3.6,2.1-8.1h1.3c4.1,0,8.2-.7,12.1-2.2l4,6.9,12.1-7-4.3-7.3c3-2.9,5.4-6.3,7.2-10l7.7,2,3.6-13.5-7.9-2.3h0Zm-34.3,22.3c-12.9,0-23.4-10.5-23.4-23.4s10.5-23.4,23.4-23.4,23.4,10.5,23.4,23.4-10.4,23.4-23.4,23.4h0Z"/>
      <path class="cls-1" d="m649,146.9l-14.5-3.8,2.1-7.9c-3.9-1.9-7.4-4.6-10.3-7.8l-7.5,4.4-7.5-12.9,7.5-4.4c-1.1-3.4-1.6-6.9-1.6-10.4,0-.8,0-1.6.1-2.3l-8.5-2.3,3.8-14.4,8.9,2.4c2-3.8,4.7-7.1,8-9.8l-4.3-7.4,12.9-7.5,4.6,8c3-.8,6.2-1.3,9.3-1.3h2.1l2.2-8.5,14.5,3.8-2.3,8.7c3.4,1.8,6.5,4.2,9.1,7l7.4-4.3,7.5,12.9-7.3,4.3c1.1,3.5,1.7,7.1,1.7,10.8v.6l8.2,2.1-3.8,14.4-7.8-2c-1.7,3.5-4,6.7-6.8,9.5l4.3,7.4-12.9,7.5-4-7c-3.8,1.4-7.8,2.1-11.8,2.1h-1l-2.3,8.1h0Zm-13.2-4.6l12.5,3.3,2.1-8h1.7c4.1,0,8-.7,11.8-2.1l.4-.1,4,6.8,11.2-6.5-4.2-7.2.3-.3c3-2.8,5.3-6.2,7.1-9.9l.2-.4,7.6,2,3.3-12.5-7.9-2.1v-1.4c0-3.7-.6-7.3-1.8-10.8l-.1-.4,7.2-4.2-6.5-11.2-7.2,4.2-.3-.3c-2.7-3-5.9-5.4-9.4-7.3l-.3-.2,2.2-8.5-12.5-3.3-2.2,8.3h-2.8c-3.2,0-6.3.4-9.4,1.3l-.4.1-4.5-7.8-11.2,6.5,4.2,7.3-.3.3c-3.4,2.8-6.2,6.2-8.3,10.2l-.2.3-8.7-2.3-3.3,12.5,8.4,2.2v.4c-.1.8-.1,1.7-.1,2.6,0,3.6.5,7.1,1.7,10.5l.1.4-7.4,4.3,6.5,11.2,7.3-4.2.3.3c3,3.4,6.6,6.1,10.6,8.1l.4.2-2.1,7.7h0Zm16.3-14.5c-13.2,0-23.9-10.7-23.9-23.9s10.7-23.9,23.9-23.9,23.9,10.7,23.9,23.9-10.7,23.9-23.9,23.9h0Zm0-46.8c-12.6,0-22.9,10.3-22.9,22.9s10.3,22.9,22.9,22.9,22.9-10.3,22.9-22.9-10.2-22.9-22.9-22.9Z"/>
    </g>
    <g>
      <path class="cls-4" d="m595.3,589.6c-4.1.9-8.4.7-12.5-.6-9.3-2.6-14.5,1.3-14.5,1.3l-9.6-26.3,36.2-8.5,6.5,18.6c-13.1,3.3-6.1,15.5-6.1,15.5h0Z"/>
      <path class="cls-8" d="m568.2,591.1l-.2-.6-9.8-26.8,37.2-8.8,6.8,19.5-.5.1c-3.6.9-6,2.6-7,5.1-1.8,4.3,1.2,9.7,1.2,9.8l.3.6-.7.2c-4.2.9-8.6.7-12.7-.6-9-2.5-14,1.2-14,1.2l-.6.3h0Zm8.4-3.5c1.8,0,4,.2,6.3.9,3.8,1.2,7.7,1.5,11.6.7-.8-1.6-2.6-6.1-.9-10,1.1-2.6,3.5-4.5,7.2-5.5l-6.2-17.7-35.2,8.3,9.2,25.2c1.1-.6,3.9-1.9,8-1.9h0Z"/>
    </g>
    <g>
      <path class="cls-3" d="m650.1,586.9s-3.1,3.7-21,11.1c0,0-41.7,19.7-53.7,18.5,0,0-10.8-22.8-7-26.2,0,0,5.1-3.9,14.5-1.3,4,1.3,8.3,1.5,12.5.6,0,0-7-12.2,6.2-15.5,0,0,4.7,8.8,14.4,9.2-.1-.1,28.7-3.2,34.1,3.6h0Z"/>
      <path class="cls-8" d="m576.5,617.1h-1.5l-.1-.3c-1.1-2.4-10.8-23.2-6.9-26.8.2-.2,5.5-4,14.9-1.4,3.8,1.2,7.7,1.5,11.6.7-.8-1.6-2.6-6.1-.9-10,1.2-2.7,3.8-4.7,7.7-5.7l.4-.1.2.3c0,.1,4.7,8.6,14,8.9h0c2.8-.3,29.2-2.9,34.6,3.9l.2.3-.3.3c-.1.2-3.4,3.9-21.2,11.3-1.5.8-39.5,18.6-52.7,18.6h0Zm-.8-1.1c12,.8,52.7-18.3,53.2-18.5,14.8-6.1,19.4-9.7,20.5-10.7-5.8-6.1-33.2-3.2-33.5-3.2-8.8-.3-13.7-7.4-14.7-9.1-3.4,1-5.7,2.6-6.7,5-1.8,4.4,1.2,9.7,1.2,9.7l.3.6-.7.2c-4.2.9-8.6.7-12.7-.6-9-2.5-14,1.2-14,1.2-2.4,2.4,2.9,16.4,7.1,25.4h0Z"/>
    </g>
    <g>
      <path class="cls-8" d="m644.3,597.8l-64.3,25c-3.4.2-4.6-6.3-4.6-6.3,12,1.2,53.7-18.5,53.7-18.5,17.9-7.4,21-11.1,21-11.1,8.4,7.4-5.8,10.9-5.8,10.9h0Z"/>
      <path class="cls-8" d="m579.8,623.3c-3.6,0-4.9-6.4-4.9-6.7l-.1-.7.7.1c11.7,1.1,53-18.2,53.4-18.4,17.5-7.2,20.8-11,20.8-11l.3-.4.4.3c2.3,2,3.2,3.9,2.8,5.7-1,4-8.1,5.8-8.7,6l-64.3,25h-.1c-.13.07-.23.1-.3.1h0Zm-3.8-6.2c.5,1.9,1.8,5.3,3.9,5.2l64.3-25c.1,0,7.2-1.8,8-5.3.3-1.3-.4-2.8-2.1-4.4-1.2,1.1-5.9,4.7-20.8,10.9-1.6.8-39.5,18.6-52.8,18.6h-.5Z"/>
    </g>
    <g>
      <path class="cls-7" d="m483,410.9s46.1-3.1,57,14.6l69.3,122-52.4,30.6-48.8-97.1-25.1-70.1Z"/>
      <path class="cls-8" d="m556.7,578.8l-49-97.6-25.4-70.8h.7c1.9-.1,46.5-3,57.5,14.8l69.5,122.4-53.3,31.2h0Zm-73-167.5l24.9,69.5,48.5,96.6,51.5-30.1-69-121.6c-10-16.1-50.2-14.6-55.9-14.4h0Z"/>
    </g>
    <g>
      <polygon class="cls-3" points="556.9 578.1 548.6 561.5 599.7 530.6 609.2 547.5 556.9 578.1"/>
      <path class="cls-8" d="m556.7,578.8l-8.8-17.5,52-31.4,10.1,17.8-53.3,31.1h0Zm-7.5-17.1l7.9,15.7,51.5-30.1-9.1-16-50.3,30.4h0Z"/>
    </g>
    <g>
      <path class="cls-1" d="m204.4,318.2s-24.8-10.3-36.9,34c0,0-54.5,151.8-4.1,225.9,0,0,9.9,25.3,139.7,26.8,0,0,156.4,1.7,203.3-26,0,0,22.1-8,20.2-57.7l-43.6-82.5-158.7-24-119.9-96.5h0Z"/>
      <path class="cls-8" d="m307.3,605.4h-4.2c-126.9-1.4-139.4-25.4-140.1-27-26.1-38.4-23.6-97.9-16.9-141.1,7.2-46.7,20.8-84.9,21-85.3,4.7-17.3,11.9-28.5,21.4-33.1,8.6-4.2,15.9-1.3,16.2-1.2l.1.1,119.6,96.4,158.9,24,.1.2,43.7,82.6v.1c1.9,49.5-19.6,57.9-20.6,58.2-42.1,24.9-173.8,26.1-199.2,26.1h0Zm-109.3-287.7c-2.6,0-5.8.5-9.2,2.2-9.2,4.5-16.2,15.4-20.9,32.5-.1.4-13.7,38.5-20.9,85.1-6.7,43-9.2,102.2,16.8,140.4l.1.1c.1.2,11.7,25,139.2,26.4,1.6,0,156.8,1.3,203-25.9.3-.1,21.8-8.6,20-57.2l-43.4-82.1-158.6-24-.1-.1-119.8-96.4c-.5-.2-2.8-1-6.2-1h0Z"/>
    </g>
    <g>
      <path class="cls-3" d="m250,294.8l-24.9,1.4s-26.6,4.4-20.5,39.9c0,0,10.1,42.3,28.6,72.1,0,0,2.8,9.3,24.2,10.1,0,0,28.6,43.5,51.1,35.4,0,0-.6-14.3,35.8-31l35-27.8-17.8-17.7c-.1-.1,0-.2.1-.2l28.6,12.3,19.5-5.7,4.9-21.8s-36.2-19.3-52.8-33.8l-15.3-12.9s-31.8-23.3-53.6-17.3l-42.9-3h0Z"/>
      <path class="cls-8" d="m302.5,455.2c-20.7,0-43.3-33.1-45.5-36.5-20.5-.8-24-9.4-24.4-10.3-18.3-29.5-28.5-71.8-28.6-72.2-2.1-12.4-.5-22.4,4.7-29.8,6.4-9,15.8-10.7,16.2-10.7l25-1.4h0l43,3c21.7-5.9,52.6,16.5,53.9,17.4l15.3,12.9c16.3,14.3,52.3,33.5,52.7,33.7l.3.2-5,22.5-20,5.9-27-11.6,16.7,16.7-35.4,28.1c-35.6,16.3-35.5,30.4-35.5,30.5v.4l-.3.1c-2,.7-4.1,1.1-6.1,1.1h0Zm-52.5-159.9l-24.9,1.4s-9.4,1.7-15.5,10.3c-5.1,7.1-6.6,16.9-4.5,29,.1.4,10.3,42.5,28.5,71.9v.1c0,.1,3,8.9,23.7,9.7h.3l.1.2c.3.4,28.4,42.7,50.2,35.4.2-2.4,2.6-15.7,36.1-31.1l34.5-27.4-17.3-17.3c-.2-.2-.2-.5-.1-.8.2-.2.5-.3.8-.2l28.5,12.3,19-5.6,4.7-21.2c-3.7-2-37-20.1-52.5-33.7l-15.3-12.9c-.3-.2-31.8-23.1-53.1-17.2h-.2l-43-2.9h0Z"/>
    </g>
    <g>
      <path class="cls-4" d="m354.3,414.7l50.8-12.1,4.8-18.9s-12.5-1.8-27.8,5.8c0,0-10.1,6.2-27.8,5.2v20h0Z"/>
      <path class="cls-8" d="m353.8,415.3v-21.2h.5c17.3.9,27.4-5.1,27.5-5.2,15.3-7.5,28-5.9,28.1-5.8l.5.1-5,19.8-51.6,12.3h0Zm1-20.2v18.9l49.8-11.9,4.6-18.1c-2.6-.2-13.8-.7-26.9,5.8,0,0-10.1,6.1-27.5,5.3h0Z"/>
    </g>
    <g>
      <path class="cls-7" d="m606.8,508.8l-35.4,45.5c-3.9-2.4-7.8-4.8-11.8-7.3-17.5-11-35.5-23-53.8-36.2-17-12.2-33-24.3-47.9-36.2-104.3,12.1-149.4-21-149.4-21,.8-17.7,35.8-31,35.8-31l4.2-3.4,61.4-11.7h69l91.3,72.2,23.1,18.3,13.5,10.8h0Z"/>
      <path class="cls-8" d="m571.5,555l-.4-.2c-3.9-2.4-7.8-4.8-11.8-7.3-18.5-11.7-36.7-23.8-53.9-36.2-16.5-11.8-32.6-24-47.8-36.1-53.9,6.2-91.6.2-113.8-6-24.1-6.7-35.6-15-35.8-15.1l-.2-.2v-.3c.8-17.6,33.9-30.6,36.1-31.4l4.3-3.4,61.5-11.7h69.3l.1.1,128.3,101.5-35.9,46.3h0Zm-113.5-81l.2.1c15.2,12.2,31.4,24.4,47.9,36.2,17.2,12.3,35.3,24.5,53.8,36.2,3.8,2.4,7.7,4.8,11.4,7.1l34.9-44.8-127.5-100.7h-68.8l-61.2,11.6-4.3,3.4c-.4.1-34.4,13.2-35.5,30.3,3.5,2.4,49.6,32.2,148.8,20.7l.3-.1h0Z"/>
    </g>
    <g>
      <path class="cls-3" d="m606.8,508.8l-35.4,45.5c-3.9-2.4-7.8-4.8-11.8-7.3l33.7-48.9,13.5,10.7h0Z"/>
      <path class="cls-8" d="m571.5,555l-.4-.2c-3.9-2.4-7.8-4.8-11.8-7.3l-.4-.3.3-.4,34-49.3,14.3,11.3-36,46.2h0Zm-11.2-8.2c3.7,2.3,7.4,4.6,11,6.8l34.9-44.8-12.8-10-33.1,48h0Z"/>
    </g>
    <g>
      <path class="cls-4" d="m625.4,541.4c-2.8,3.4-6.4,6.1-10.5,7.7-9.3,4-10.9,10.5-10.9,10.5l-25.1-14.9,23.7-30.5,17.5,10.7c-8.4,11.3,5.3,16.5,5.3,16.5Z"/>
      <path class="cls-8" d="m604.3,560.3l-26.2-15.5,24.3-31.3,18.3,11.2-.3.4c-2.3,3.1-3.1,6-2.4,8.7,1.4,4.7,7.3,7.1,7.4,7.1l.6.2-.4.5c-2.8,3.5-6.5,6.2-10.7,7.8-8.9,3.8-10.5,10.1-10.6,10.1v.8h0Zm-24.7-15.8l24.1,14.3c.7-1.8,3.2-6.8,11-10.2,3.8-1.5,7.2-3.9,9.9-7-1.7-.8-6.1-3.2-7.4-7.5-.8-2.8-.1-5.9,2.2-9.1l-16.7-10.2-23.1,29.7h0Z"/>
    </g>
    <g>
      <path class="cls-3" d="m668,503.6s-.1,5-9.7,22.6c0,0-20.9,43-31.4,49.8,0,0-23.8-11.3-23-16.5,0,0,1.6-6.4,10.9-10.5,4.1-1.6,7.7-4.2,10.5-7.7,0,0-13.7-5.2-5.2-16.5,0,0,9.7,4,17.7-2,0,.1,21.4-21.2,30.2-19.2h0Z"/>
      <path class="cls-8" d="m627,576.6l-.2-.1c-2.5-1.2-24.1-11.6-23.3-17,.1-.3,1.8-6.8,11.2-10.9,3.8-1.5,7.2-3.9,9.9-7-1.7-.8-6.1-3.2-7.4-7.5-.8-3,0-6.2,2.5-9.5l.2-.3.4.2c.1,0,9.5,3.8,17.2-1.9l.1-.1c3.6-3.6,22.2-21.3,30.6-19.4l.4.1v.4c0,.2-.2,5.3-9.8,22.9-.8,1.7-21.1,43.2-31.5,50l-.3.1h0Zm-6.7-51.1c-2.2,3-2.9,5.8-2.2,8.4,1.4,4.7,7.3,7.1,7.4,7.1l.6.2-.4.5c-2.8,3.5-6.5,6.2-10.7,7.8-8.9,3.9-10.5,10.1-10.6,10.1-.5,3.5,13.1,11.3,22.5,15.8,10.3-7.2,30.8-49.1,31-49.5,7.9-14.5,9.3-20.5,9.6-22-6.3-.8-19.6,9.7-29.2,19.2l-.2.2c-7.3,5.5-15.9,2.9-17.8,2.2h0Z"/>
    </g>
    <g>
      <path class="cls-8" d="m670.5,516.1l-35.6,62c-2.6,2.4-7.9-2-7.9-2,10.4-6.9,31.3-49.9,31.3-49.9,9.6-17.6,9.7-22.6,9.7-22.6,11.7.4,2.5,12.5,2.5,12.5Z"/>
      <path class="cls-8" d="m632.9,579.3c-2.8,0-6.1-2.7-6.2-2.8l-.5-.4.6-.4c10.2-6.7,31-49.2,31.2-49.7,9.4-17.2,9.7-22.4,9.7-22.4v-.5h.5c3.1.1,5.1,1.1,6,2.8,1.8,3.8-2.8,9.9-3.1,10.5l-35.6,62h-.1c-.9.6-1.7.9-2.5.9h0Zm-5.1-3.2c1.7,1.2,5,3.1,6.6,1.7l35.6-62c0-.1,4.6-6.1,3-9.5-.6-1.3-2.2-2-4.6-2.2-.2,1.7-1.7,7.6-9.7,22.4-.8,1.7-20.3,41.7-30.9,49.6h0Z"/>
    </g>
    <g>
      <path class="cls-6" d="m158.8,595.4c0,8.9-32.7,16.1-73.1,16.1s-73.1-7.2-73.1-16.1c.1-1.2.6-2.4,1.5-3.2,6.8-7.3,36.3-12.9,71.6-12.9s64.9,5.5,71.6,12.9c.9.8,1.5,2,1.5,3.2Z"/>
      <path class="cls-8" d="m85.7,612c-41.3,0-73.6-7.3-73.6-16.6.1-1.4.7-2.6,1.6-3.6,6.9-7.5,37.2-13,72-13s65,5.5,72,13c1,.9,1.5,2.2,1.6,3.5h0c0,9.4-32.3,16.7-73.6,16.7h0Zm0-32.2c-34.5,0-64.5,5.3-71.3,12.7-.8.8-1.3,1.8-1.3,2.9,0,8.4,33.3,15.6,72.6,15.6s72.6-7.1,72.6-15.6c-.1-1.1-.5-2.1-1.3-2.9-6.8-7.4-36.8-12.7-71.3-12.7h0Z"/>
    </g>
    <g>
      <path class="cls-1" d="m124.8,187.8l18-19.6-18.7-17.1c-5.4-5-13.8-4.6-18.8.8h0c-5,5.4-4.6,13.8.8,18.8h0l6.3,5.7L31.6,375.1h-5.9v-6.4c0-.9-.7-1.6-1.6-1.6s-1.6.7-1.6,1.6v6.4h-1c-2.1.1-3.7,1.9-3.6,4,.1,2,1.7,3.5,3.6,3.6h1v9.3c0,.9.7,1.6,1.6,1.6s1.6-.7,1.6-1.6h0v-9.2h5.4l50.1,201.7h10.5l-50.4-206,78.9-194.9,4.6,4.2h0Z"/>
      <path class="cls-8" d="m92.4,585h-11.5l-.1-.4-50.1-201.4h-4.5v8.7c0,1.2-.9,2.1-2.1,2.1s-2.1-1-2.1-2.1v-8.8h-.5c-2.2-.1-4-1.9-4.1-4.1-.1-1.1.3-2.3,1.1-3.1s1.8-1.4,3-1.4h.5v-5.9c0-1.2.9-2.1,2.1-2.1s2.1,1,2.1,2.1v5.9h5.1l80.5-198.1-6-5.5c-5.6-5.1-6-13.9-.9-19.5s13.9-6,19.5-.9l19.1,17.5-18.7,20.3-4.3-4-78.6,194.1,50.5,206.6h0Zm-10.7-1h9.5l-50.3-205.5,79.3-195.7,4.6,4.3,17.3-18.9-18.3-16.8c-5.2-4.8-13.3-4.4-18.1.8s-4.4,13.3.8,18.1l6.5,6-.1.3L32,375.6h-6.7v-6.9c0-.6-.5-1.1-1.1-1.1s-1.1.5-1.1,1.1v6.9h-1.5c-.9,0-1.7.4-2.3,1.1s-.9,1.5-.8,2.4c.1,1.7,1.4,3.1,3.2,3.2h1.5v9.8c0,.6.5,1.1,1.1,1.1s1.1-.5,1.1-1.1v-9.7h6.3l.1.4,49.9,201.2h0Z"/>
    </g>
    <g>
      <path class="cls-4" d="m250,264.7v28.2c0,5.4,2.7,10.4,7.2,13.3,4.8,3,12.3,6,23.8,6.2,0,0,15.7,1.6,12.1-14.5l-3.2-20.5-39.9-12.7h0Z"/>
      <path class="cls-8" d="m282.2,312.8h-1.2c-9.7-.1-17.8-2.2-24-6.2-4.7-3-7.5-8.1-7.4-13.7v-28.9l40.9,12.9,3.3,20.9c1.1,5,.5,8.9-1.8,11.5-3,3.1-7.6,3.6-9.8,3.5h0Zm-31.7-47.4v27.5c0,5.2,2.6,10,7,12.8,6.1,3.9,14,6,23.6,6.1.1,0,6.6.6,10-3.2,2.1-2.4,2.6-6,1.6-10.7l-3.2-20.3-39-12.2h0Z"/>
    </g>
    <g>
      <path class="cls-4" d="m237.1,248.7l11.1-4.3h0l8.6,22.2h0l-11.1,4.3c-6.1,2.4-13-.7-15.4-6.8h0c-2.4-6.2.7-13.1,6.8-15.4h0Z"/>
      <path class="cls-8" d="m241.4,272.1c-1.7,0-3.4-.4-5-1.1-3-1.3-5.4-3.8-6.5-6.9-1.2-3.1-1.1-6.5.2-9.5s3.8-5.4,6.9-6.5l11.5-4.5,8.9,23.1-11.5,4.5c-1.5.6-3,.9-4.5.9h0Zm-4.1-23c-5.9,2.3-8.8,8.9-6.5,14.7,2.3,5.9,8.9,8.8,14.7,6.5l10.6-4.1-8.2-21.2-10.6,4.1h0Z"/>
    </g>
    <g>
      <rect class="cls-1" x="342.6" y="385.2" width="11.7" height="37.5"/>
      <path class="cls-8" d="m354.8,423.1h-12.7v-38.5h12.7v38.5Zm-11.7-1h10.7v-36.5h-10.7v36.5Z"/>
    </g>
    <g>
      <path class="cls-1" d="m354.3,419.3l55.6-11.6h89.7c2.7,0,5-1.8,5.6-4.4l21.1-86.4c1.2-5-1.8-9.9-6.8-11.1-.7-.2-1.5-.3-2.2-.3h-83.6c-3.1,0-5.8,2.1-6.6,5.2l-22.1,91.9-50.8,12.1.1,4.6h0Z"/>
      <path class="cls-8" d="m353.8,419.9v-5.6l50.8-12.2,22-91.6c.8-3.3,3.7-5.5,7-5.5h83.6c.8,0,1.6.1,2.3.3,2.5.6,4.7,2.2,6,4.4s1.8,4.8,1.1,7.4l-21.1,86.4c-.7,2.8-3.2,4.8-6.1,4.8h-89.6l-56,11.6h0Zm1-4.8v3.6l55.1-11.5h89.7c2.4,0,4.5-1.7,5.1-4l21.1-86.4c.5-2.3.2-4.6-1-6.6s-3.1-3.4-5.4-4c-.7-.2-1.4-.2-2.1-.2h-83.6c-2.9,0-5.4,2-6.1,4.8l-22.2,92.2-50.6,12.1h0Z"/>
    </g>
    <g>
      <ellipse class="cls-8" cx="469.46" cy="353.62" rx="8.9" ry="8.7" transform="translate(-56.29 616.34) rotate(-63.54)"/>
      <path class="cls-8" d="m469.3,362.9c-1.4,0-2.7-.3-4-1-4.5-2.2-6.3-7.8-4-12.5h0c2.3-4.6,7.8-6.5,12.4-4.3s6.3,7.8,4,12.5c-1.1,2.2-3,3.9-5.3,4.7-1,.4-2,.6-3.1.6h0Zm-7.1-13h0c-2,4.1-.5,9.1,3.6,11.1,2,1,4.2,1.1,6.2.4,2.1-.7,3.8-2.2,4.8-4.2,2-4.1.5-9.1-3.6-11.1s-8.9-.3-11,3.8h0Z"/>
    </g>
    <g>
      <path class="cls-7" d="m130,234.2s-33.4-31-3.2-67.7c0,0,25.8-28.2,61.2-6l-58,73.7Z"/>
      <path class="cls-8" d="m130,234.9l-.4-.4c-.3-.3-33.4-31.7-3.3-68.3.3-.3,26.5-28.3,61.9-6.1l.5.3-58.7,74.5h0Zm30.8-82.3c-20.2,0-33.4,14.1-33.6,14.3-15.4,18.7-13.8,35.9-9.6,47,3.9,10.6,10.7,17.9,12.4,19.5l57.3-72.8c-9.7-5.9-18.7-8-26.5-8h0Z"/>
    </g>
    <g>
      <ellipse class="cls-1" cx="159.66" cy="198.18" rx="47.3" ry="11" transform="translate(-94.77 203.89) rotate(-52.43)"/>
      <path class="cls-8" d="m132.9,236.8c-.9,0-1.7-.2-2.3-.7-5.7-4.4,5.7-26.3,20-44.9s32.5-35.2,38.3-30.8-5.7,26.3-20,44.9c-7.7,10-15.9,18.8-23,24.6-4.2,3.3-9.4,6.9-13,6.9h0Zm53.6-76.1c-5.7,0-19.9,11.4-35.2,31.1h0c-17.1,22.2-24.2,40.4-20.2,43.5,2.1,1.6,7.2-.6,14-6.2,7.1-5.8,15.2-14.5,22.9-24.4,17.1-22.2,24.2-40.4,20.2-43.5-.4-.4-1-.5-1.7-.5h0Z"/>
    </g>
    <g>
      <circle class="cls-7" cx="162.2" cy="198.3" r="9.3"/>
      <path class="cls-8" d="m162.2,208.1c-5.4,0-9.8-4.4-9.8-9.8s4.4-9.8,9.8-9.8,9.8,4.4,9.8,9.8-4.4,9.8-9.8,9.8h0Zm0-18.5c-4.8,0-8.8,3.9-8.8,8.8s3.9,8.8,8.8,8.8,8.8-3.9,8.8-8.8-3.9-8.8-8.8-8.8h0Z"/>
    </g>
    <g>
      <path class="cls-1" d="m347.1.5h296.1c7.8,0,14.1,6.3,14.1,14.1v221.2c0,7.8-6.3,14.1-14.1,14.1h-296.1c-7.8,0-14.1-6.3-14.1-14.1V14.6c0-7.8,6.3-14.1,14.1-14.1h0Z"/>
      <path class="cls-8" d="m643.2,250.5h-296.1c-8.1,0-14.6-6.6-14.6-14.6V14.6c0-8.1,6.6-14.6,14.6-14.6h296.1c8.1,0,14.6,6.6,14.6,14.6v221.2c.1,8.1-6.5,14.7-14.6,14.7h0ZM347.1,1c-7.5,0-13.6,6.1-13.6,13.6v221.2c0,7.5,6.1,13.6,13.6,13.6h296.1c7.5,0,13.6-6.1,13.6-13.6V14.6c0-7.5-6.1-13.6-13.6-13.6h-296.1Z"/>
    </g>
    <g>
      <path class="cls-3" d="m657.4,14.6v29h-324.4V14.6c0-7.8,6.3-14.1,14.1-14.1h296.1c7.8,0,14.2,6.3,14.2,14.1h0Z"/>
      <path class="cls-8" d="m657.9,44.1h-325.4V14.6c0-8.1,6.6-14.6,14.6-14.6h296.1c8.1,0,14.6,6.6,14.6,14.6l.1,29.5h0Zm-324.4-1h323.4V14.6c0-7.5-6.1-13.6-13.6-13.6h-296.2c-7.5,0-13.6,6.1-13.6,13.6v28.5h0Z"/>
    </g>
    <g>
      <circle class="cls-1" cx="356.5" cy="21.4" r="7"/>
      <path class="cls-8" d="m356.5,28.9c-4.1,0-7.5-3.4-7.5-7.5s3.4-7.5,7.5-7.5,7.5,3.4,7.5,7.5-3.4,7.5-7.5,7.5Zm0-13.9c-3.6,0-6.5,2.9-6.5,6.5s2.9,6.5,6.5,6.5,6.5-2.9,6.5-6.5-3-6.5-6.5-6.5Z"/>
    </g>
    <g>
      <circle class="cls-1" cx="380.6" cy="21.4" r="7"/>
      <path class="cls-8" d="m380.6,28.9c-4.1,0-7.5-3.4-7.5-7.5s3.4-7.5,7.5-7.5,7.5,3.4,7.5,7.5-3.4,7.5-7.5,7.5Zm0-13.9c-3.6,0-6.5,2.9-6.5,6.5s2.9,6.5,6.5,6.5,6.5-2.9,6.5-6.5-2.9-6.5-6.5-6.5Z"/>
    </g>
    <g>
      <circle class="cls-1" cx="404.7" cy="21.4" r="7"/>
      <path class="cls-8" d="m404.7,28.9c-4.1,0-7.5-3.4-7.5-7.5s3.4-7.5,7.5-7.5,7.5,3.4,7.5,7.5-3.4,7.5-7.5,7.5Zm0-13.9c-3.6,0-6.5,2.9-6.5,6.5s2.9,6.5,6.5,6.5,6.5-2.9,6.5-6.5-2.9-6.5-6.5-6.5Z"/>
    </g>
    <path class="cls-8" d="m630.1,28.9c-.1,0-.3,0-.3-.2-.2-.2-.2-.5,0-.7l12.1-12.1c.2-.2.5-.2.7,0s.2.5,0,.7l-12.2,12.2c-.1.1-.2.1-.3.1h0Z"/>
    <path class="cls-8" d="m642.1,28.9c-.1,0-.3,0-.3-.2l-12.1-12.1c-.2-.2-.2-.5,0-.7s.5-.2.7,0l12.1,12.1c.2.2.2.5,0,.7-.1.2-.2.2-.4.2h0Z"/>
    <g>
      <rect class="cls-3" x="531" y="70.3" width="69.8" height="71.1"/>
      <path class="cls-8" d="m601.4,141.9h-70.8v-72.1h70.8v72.1Zm-69.9-1h68.9v-70.1h-68.8v70.1h-.1Z"/>
    </g>
    <g>
      <polygon class="cls-7" points="536.1 136.3 557.7 97 569.1 122.4 578 108.4 595.8 136.3 536.1 136.3"/>
      <path class="cls-8" d="m596.7,136.8h-61.4l22.5-41,11.5,25.5,8.8-13.9,18.6,29.4h0Zm-59.7-1h57.9l-16.9-26.5-9,14.1-11.4-25.3-20.6,37.7h0Z"/>
    </g>
    <g>
      <circle class="cls-1" cx="571" cy="91.3" r="4.4"/>
      <path class="cls-8" d="m571,96.2c-2.7,0-4.9-2.2-4.9-4.9s2.2-4.9,4.9-4.9,4.9,2.2,4.9,4.9-2.1,4.9-4.9,4.9Zm0-8.9c-2.2,0-3.9,1.8-3.9,3.9s1.8,3.9,3.9,3.9,3.9-1.8,3.9-3.9-1.7-3.9-3.9-3.9Z"/>
    </g>
    <g>
      <polygon class="cls-8" points="367.3 105.9 367.3 116 407.9 135.1 407.9 123.6 380 111 409.2 100.8 409.2 88.1 367.3 105.9"/>
      <path class="cls-8" d="m408.4,135.9l-41.6-19.5v-10.8l42.9-18.2v13.8l-28.4,9.9,27.1,12.3v12.5h0Zm-40.6-20.2l39.6,18.6v-10.3l-28.8-13.1,30-10.4v-11.6l-40.8,17.3v9.5h0Z"/>
    </g>
    <g>
      <polygon class="cls-8" points="481.5 117.3 481.5 107.1 440.9 88.1 440.9 99.5 468.8 112.2 439.6 122.4 439.6 135.1 481.5 117.3"/>
      <path class="cls-8" d="m439.1,135.8v-13.8l28.4-9.9-27.1-12.3v-12.5l41.6,19.5v10.8l-42.9,18.2h0Zm1-13.1v11.6l40.9-17.4v-9.5l-39.6-18.5v10.3l28.8,13.1-30.1,10.4h0Z"/>
    </g>
    <g>
      <polygon class="cls-8" points="411.7 141.4 421.9 141.4 437.1 80.5 426.9 80.5 411.7 141.4"/>
      <path class="cls-8" d="m422.2,141.9h-11.2l15.5-61.9h11.2l-15.5,61.9h0Zm-9.9-1h9.1l15-59.9h-9.1l-15,59.9h0Z"/>
    </g>
    <g>
      <rect class="cls-8" x="363.4" y="179.5" width="55.9" height="6.4"/>
      <path class="cls-8" d="m419.8,186.4h-56.9v-7.4h56.9v7.4h0Zm-55.9-1h54.9v-5.4h-54.9v5.4Z"/>
    </g>
    <g>
      <rect class="cls-8" x="363.4" y="211.3" width="44.4" height="6.4"/>
      <path class="cls-8" d="m408.4,218.1h-45.4v-7.4h45.4v7.4Zm-44.5-1h43.5v-5.4h-43.4v5.4h-.1Z"/>
    </g>
    <g>
      <rect class="cls-8" x="426.9" y="211.3" width="44.4" height="6.4"/>
      <path class="cls-8" d="m471.9,218.1h-45.5v-7.4h45.4l.1,7.4h0Zm-44.5-1h43.4v-5.4h-43.4v5.4Z"/>
    </g>
    <g>
      <rect class="cls-8" x="506.9" y="211.3" width="44.4" height="6.4"/>
      <path class="cls-8" d="m551.9,218.1h-45.5v-7.4h45.4l.1,7.4h0Zm-44.5-1h43.4v-5.4h-43.4v5.4Z"/>
    </g>
    <g>
      <rect class="cls-8" x="570.4" y="211.3" width="44.4" height="6.4"/>
      <path class="cls-8" d="m615.3,218.1h-45.4v-7.4h45.4v7.4Zm-44.4-1h43.4v-5.4h-43.4v5.4Z"/>
    </g>
    <g>
      <rect class="cls-8" x="363.4" y="196" width="26.7" height="6.4"/>
      <path class="cls-8" d="m390.6,202.9h-27.7v-7.4h27.7v7.4Zm-26.7-1h25.7v-5.4h-25.7v5.4Z"/>
    </g>
    <g>
      <rect class="cls-8" x="392.6" y="196" width="8.9" height="6.4"/>
      <path class="cls-8" d="m402,202.9h-9.9v-7.4h9.9v7.4Zm-8.8-1h7.9v-5.4h-7.9v5.4Z"/>
    </g>
    <g>
      <rect class="cls-8" x="426.9" y="196" width="26.7" height="6.4"/>
      <path class="cls-8" d="m454.1,202.9h-27.7v-7.4h27.7v7.4Zm-26.7-1h25.7v-5.4h-25.7v5.4Z"/>
    </g>
    <g>
      <rect class="cls-8" x="456.1" y="196" width="8.9" height="6.4"/>
      <path class="cls-8" d="m465.5,202.9h-9.9v-7.4h9.9v7.4Zm-8.9-1h7.9v-5.4h-7.9v5.4Z"/>
    </g>
    <g>
      <rect class="cls-8" x="506.9" y="196" width="26.7" height="6.4"/>
      <path class="cls-8" d="m534.1,202.9h-27.7v-7.4h27.7v7.4Zm-26.7-1h25.7v-5.4h-25.7v5.4Z"/>
    </g>
    <g>
      <rect class="cls-8" x="536.1" y="196" width="8.9" height="6.4"/>
      <path class="cls-8" d="m545.5,202.9h-9.9v-7.4h9.9v7.4Zm-8.9-1h7.9v-5.4h-7.9v5.4Z"/>
    </g>
    <g>
      <rect class="cls-8" x="571.7" y="196" width="26.7" height="6.4"/>
      <path class="cls-8" d="m598.8,202.9h-27.7v-7.4h27.7v7.4Zm-26.6-1h25.7v-5.4h-25.7v5.4Z"/>
    </g>
    <g>
      <rect class="cls-8" x="600.9" y="196" width="8.9" height="6.4"/>
      <path class="cls-8" d="m610.3,202.9h-9.9v-7.4h9.9v7.4Zm-8.9-1h7.9v-5.4h-7.9v5.4Z"/>
    </g>
    <g>
      <rect class="cls-8" x="426.9" y="179.5" width="55.9" height="6.4"/>
      <path class="cls-8" d="m483.3,186.4h-56.9v-7.4h56.9v7.4Zm-55.9-1h54.9v-5.4h-54.9v5.4Z"/>
    </g>
    <g>
      <rect class="cls-8" x="506.9" y="179.5" width="55.9" height="6.4"/>
      <path class="cls-8" d="m563.3,186.4h-56.9v-7.4h56.9v7.4Zm-55.9-1h54.9v-5.4h-54.9v5.4Z"/>
    </g>
    <g>
      <rect class="cls-8" x="570.4" y="179.5" width="55.9" height="6.4"/>
      <path class="cls-8" d="m626.8,186.4h-56.9v-7.4h56.9v7.4Zm-55.9-1h54.9v-5.4h-54.9v5.4Z"/>
    </g>
    <g>
      <path class="cls-7" d="m204.3,59.6h96.6c3.7,0,6.7,3,6.7,6.7v67.7c0,3.7-3,6.7-6.7,6.7h-96.6c-3.7,0-6.7-3-6.7-6.7v-67.7c0-3.7,3-6.7,6.7-6.7Z"/>
      <path class="cls-8" d="m300.9,141.2h-96.6c-4,0-7.2-3.2-7.2-7.2v-67.7c0-4,3.2-7.2,7.2-7.2h96.6c4,0,7.2,3.2,7.2,7.2v67.7c0,4-3.3,7.2-7.2,7.2h0Zm-96.6-81.1c-3.4,0-6.2,2.8-6.2,6.2v67.7c0,3.4,2.8,6.2,6.2,6.2h96.6c3.4,0,6.2-2.8,6.2-6.2v-67.7c0-3.4-2.8-6.2-6.2-6.2,0,0-96.6,0-96.6,0Z"/>
    </g>
    <g>
      <path class="cls-3" d="m571.6,262h78.2c8.2,0,14.9,6.7,14.9,14.9v55.5c0,8.2-6.7,14.9-14.9,14.9h-78.2c-8.2,0-14.9-6.7-14.9-14.9v-55.5c0-8.3,6.6-14.9,14.9-14.9Z"/>
      <path class="cls-8" d="m649.7,347.7h-78.2c-8.5,0-15.4-6.9-15.4-15.4v-55.5c0-8.5,6.9-15.4,15.4-15.4h78.2c8.5,0,15.4,6.9,15.4,15.4v55.5c0,8.5-6.9,15.4-15.4,15.4Zm-78.1-85.2c-7.9,0-14.4,6.5-14.4,14.4v55.5c0,7.9,6.5,14.4,14.4,14.4h78.2c7.9,0,14.4-6.5,14.4-14.4v-55.5c0-7.9-6.5-14.4-14.4-14.4h-78.2Z"/>
    </g>
    <rect class="cls-8" x="565.51" y="64.28" width="1" height="84.4" transform="translate(90.49 431.42) rotate(-45)"/>
    <rect class="cls-8" x="523.69" y="105.82" width="84.6" height="1" transform="translate(91.5 432.68) rotate(-45.16)"/>
    <polygon class="cls-8" points="536.6 82.7 535.6 82.7 535.6 76.2 542.1 76.1 542.1 77.1 536.6 77.2 536.6 82.7"/>
    <path class="cls-8" d="m536.6,120.8h-1v-9.5h1v9.5Zm0-19.1h-1v-9.5h1v9.5Z"/>
    <polygon class="cls-8" points="542.1 136.8 535.6 136.8 535.6 130.3 536.6 130.3 536.6 135.8 542.1 135.8 542.1 136.8"/>
    <path class="cls-8" d="m580.2,136.8h-9.5v-1h9.5v1Zm-19,0h-9.5v-1h9.5v1Z"/>
    <polygon class="cls-8" points="596.3 136.8 589.8 136.8 589.8 135.8 595.3 135.8 595.3 130.3 596.3 130.3 596.3 136.8"/>
    <path class="cls-8" d="m596.3,120.8h-1v-9.6h1v9.6Zm0-19.2h-1v-9.6h1v9.6Z"/>
    <polygon class="cls-8" points="596.3 82.4 595.3 82.4 595.3 76.9 589.8 76.9 589.8 75.9 596.3 75.9 596.3 82.4"/>
    <path class="cls-8" d="m551.7,77.1v-1h9.5v1h-9.5Zm19-.1v-1h9.5v1h-9.5Z"/>
    <g>
      <rect class="cls-1" x="593.2" y="74.1" width="5.1" height="5.1"/>
      <path class="cls-8" d="m598.8,79.7h-6.1v-6.1h6.1v6.1Zm-5.1-1h4.1v-4.1h-4.1v4.1Z"/>
    </g>
    <g>
      <rect class="cls-1" x="533.6" y="74.1" width="5.1" height="5.1"/>
      <path class="cls-8" d="m539.2,79.7h-6.1v-6.1h6.1v6.1Zm-5.1-1h4.1v-4.1h-4.1v4.1Z"/>
    </g>
    <g>
      <rect class="cls-1" x="593.2" y="133.8" width="5.1" height="5.1"/>
      <path class="cls-8" d="m598.8,139.4h-6.1v-6.1h6.1v6.1Zm-5.1-1h4.1v-4.1h-4.1v4.1Z"/>
    </g>
    <g>
      <rect class="cls-1" x="533.6" y="133.8" width="5.1" height="5.1"/>
      <path class="cls-8" d="m539.2,139.4h-6.1v-6.1h6.1v6.1Zm-5.1-1h4.1v-4.1h-4.1v4.1Z"/>
    </g>
    <g>
      <path class="cls-4" d="m268.4,202.2h0c16.7-3.5,33,7.3,36.4,23.9l4.8,22.9c3.5,16.7-7.3,33-23.9,36.4h0c-16.7,3.5-33-7.3-36.4-23.9l-4.8-22.9c-3.5-16.6,7.2-32.9,23.9-36.4Z"/>
      <path class="cls-8" d="m279.3,286.7c-6,0-12-1.8-17.1-5.1-7-4.6-11.8-11.6-13.5-19.8l-4.8-22.9c-1.7-8.2-.1-16.6,4.5-23.6s11.6-11.8,19.8-13.5l.1.5-.1-.5c16.9-3.5,33.5,7.4,37,24.3l4.8,22.9c1.7,8.2.1,16.6-4.5,23.6s-11.6,11.8-19.8,13.5c-2.1.3-4.2.6-6.4.6h0Zm-4.7-84.7c-2,0-4.1.2-6.2.6-7.9,1.6-14.8,6.3-19.2,13.1s-6,14.9-4.4,22.8l4.8,22.9c1.6,7.9,6.3,14.8,13,19.2s14.9,6,22.8,4.4,14.8-6.3,19.2-13,6-14.9,4.4-22.8l-4.8-22.9c-2.8-14.4-15.5-24.2-29.6-24.3h0Z"/>
    </g>
    <g>
      <path class="cls-8" d="m232.9,251.4s-8.6-4.4-7.4-16.5l-3.2,3.2s-4.8-20.5,9.3-33.4c0,0-4-4-.4-12.1,2.7-4.1,6.2-7.7,10.3-10.4,0,0-2.2,4.8-1.8,7.6,0,0,11.8-17.6,37.7-7.6,0,0,15.8,9.6,31.1,8-2.4,3-5.6,5.2-9.3,6.4,0,0,22.1,14.2,6.4,33.1l-.7-3.6s-.4-1.8-.8-3.2c0,0-4.4,1.5-7.6-3.7,0,0-22.1,1.2-28.6-2.4-.2,2,1,4,2.8,4.8,0,0-10.1,4.8-19.3.8,2.7,11.5,1.8,23.5-2.5,34.5-.1.2-.4.1-.4,0-.6-4.5-4.2-7.9-15.6-5.5h0Z"/>
      <path class="cls-8" d="m248.5,257.6h-.1c-.3,0-.6-.3-.6-.6-.2-1.9-1-3.3-2.3-4.3-2.4-1.8-6.6-2-12.6-.8h-.2l-.2-.1c-.1,0-8.2-4.3-7.8-15.6l-2.9,2.9-.2-.9c0-.2-4.7-20.6,9.1-33.6-.9-1.2-3.3-5.3-.2-12.2,2.8-4.3,6.3-7.8,10.5-10.6l1.5-1-.8,1.6s-1.5,3.4-1.8,6c3.2-3.8,15.4-15.2,37.4-6.7.2.1,16,9.6,30.9,8l1.2-.1-.8.9c-2.3,2.8-5.2,5-8.6,6.3,2.5,1.8,9.9,7.8,11.2,16.5.9,5.6-1,11.2-5.5,16.7l-.7.8-1-4.6s-.4-1.4-.7-2.7c-1.3.2-4.9.4-7.6-3.8-2.7.1-21,.9-27.8-2.1.1,1.5,1.1,2.9,2.5,3.6l1,.4-1,.5c-.4.2-9.8,4.6-18.9,1.2,2.5,11.3,1.5,23-2.7,33.9.3.2,0,.4-.3.4h0Zm-9-7.4c2.9,0,5.1.6,6.7,1.7,1.3.9,2.1,2.2,2.5,3.9,3.9-10.6,4.6-22.1,2.1-33.2l-.2-1,.9.4c7.4,3.2,15.4.6,18-.4-1.5-1.1-2.4-2.9-2.2-4.8l.1-.8.7.4c6.2,3.5,28.1,2.4,28.3,2.4h.3l.2.2c3,4.8,7,3.5,7.1,3.5l.5-.2.1.5c.4,1.3.8,3.2.8,3.2l.5,2.6c3.9-5,5.4-10,4.6-15.1-1.5-9.8-11.5-16.4-11.6-16.4l-.9-.6,1-.3c3.2-1.1,6-2.9,8.2-5.4-14.9,1-30.1-8.1-30.2-8.2-25.2-9.7-36.9,7.3-37,7.5l-.7,1.1-.2-1.3c-.3-1.9.5-4.6,1.2-6.3-3.4,2.6-6.4,5.7-8.7,9.3-3.4,7.6.2,11.3.3,11.4l.4.4-.4.4c-12,11-10,28-9.3,32l3.5-3.5-.1,1.4c-1.1,10.7,5.9,15.2,7,15.9,2.4-.5,4.6-.8,6.5-.7h0Z"/>
    </g>
    <path class="cls-8" d="m339.2,385.2h0l-66.1-7.1c-2.8-.3-5.2-2-6.5-4.4l-18.2-35.8c-.1-.2,0-.5.2-.7.2-.1.5,0,.7.2l18.2,35.8c1.1,2.2,3.2,3.6,5.7,3.9l66.1,7.1c.3,0,.5.3.4.5,0,.3-.2.5-.5.5h0Z"/>
    <path class="cls-8" d="m333.2,422.2h0l-76-3.5c-.3,0-.5-.2-.5-.5s.2-.5.5-.5l75.9,3.5c.3,0,.5.2.5.5.1.3-.1.5-.4.5Z"/>
    <path class="cls-8" d="m361.1,377.3c-.2,0-.3-.1-.4-.2l-22.4-31.6c-.2-.2-.1-.5.1-.7s.5-.1.7.1l22.4,31.6c.2.2.1.5-.1.7-.1,0-.2.1-.3.1h0Z"/>
    <g>
      <g>
        <path class="cls-9" d="m247.7,550s16-13.4,34.1-.4c0,0,11.4,8.8,3.8,16.4,0,0-8,5.5-19.8-3.8,0,.1-12.5-10.1-18.1-12.2h0Z"/>
        <path class="cls-8" d="m279.2,568.1c-3.5,0-8.2-1.2-13.7-5.5-.1-.1-12.6-10.2-18-12.2l-.7-.2.6-.5c.2-.1,16.4-13.5,34.6-.4.3.2,6.2,4.9,6.6,10.5.1,2.4-.8,4.6-2.7,6.6-.1.1-2.6,1.7-6.7,1.7h0Zm-30.6-18.2c5.8,2.5,17,11.7,17.5,12.1,11.4,9,19.2,3.8,19.3,3.8,1.7-1.7,2.5-3.7,2.4-5.9-.3-5.2-6.2-9.8-6.2-9.9-15.8-11.4-30-2.3-33-.1h0Z"/>
      </g>
      <g>
        <path class="cls-9" d="m230.1,543.4s17.6-24.6,7.1-48.6c0,0-11.8-23.6,2.1-30.8,0,0,17.3-7.2,26.5,18.1,0,.1,12.4,37-35.7,61.3h0Z"/>
        <path class="cls-8" d="m228.7,544.6l1-1.4c.2-.2,17.3-24.7,7-48.2-.1-.2-11.8-24,2.3-31.3.3-.1,6.1-2.5,12.9.5,6.1,2.7,10.9,8.7,14.2,17.9,0,.1,3.1,9.5.2,21.7-2.7,11.3-11.1,27.4-36.1,40l-1.5.8h0Zm16.1-81c-3.2,0-5.4.9-5.4.9-13.3,6.9-2,30-1.9,30.2,9.1,20.8-2.7,42.2-6.2,47.7,23.6-12.4,31.7-27.8,34.3-38.7,2.9-12-.1-21.2-.2-21.3-3.3-8.9-7.9-14.8-13.8-17.4-2.4-1.1-4.8-1.4-6.8-1.4h0Z"/>
      </g>
      <g>
        <path class="cls-9" d="m185.3,472.6c-4.4,2.1-7.2,6.6-7.2,11.5.1,6.1,3.8,14.5,21.5,19.2,0,0,20.7,5.1,23,20.5,0,0,5.7-19-4-37.2-3.7-7-9.9-12.3-17.5-14.6-4.7-1.5-10.4-2-15.8.6h0Z"/>
        <path class="cls-8" d="m222.5,525.7l-.3-1.9c-2.2-14.9-22.5-20.1-22.7-20.1-17.8-4.8-21.7-13.3-21.8-19.6-.1-4.9,2.8-9.6,7.4-11.8h0c4.7-2.3,10.1-2.5,16.1-.7,7.5,2.3,13.8,7.6,17.7,14.8,9.7,18.1,4.1,37.3,4.1,37.5l-.5,1.8h0Zm-28.8-54.5c-2.9,0-5.6.6-8.1,1.9h0c-4.3,2.1-7,6.5-6.9,11.1.1,6,3.8,14.2,21.1,18.8.2,0,19.3,4.9,22.9,18.9,1.1-5.2,3.4-20.5-4.4-35-3.8-7.1-9.9-12.2-17.2-14.4-2.7-.9-5.1-1.3-7.4-1.3h0Z"/>
      </g>
      <g>
        <path class="cls-9" d="m184.4,535.8c1.1,2,3,4.3,6.4,6.6,0,0,13.3,7.7,16.8,18.6,0,0-.3-17.8-10.5-31.3,0,0-.9-1.7-2.7-3-5.9-4.1-13.5,2.6-10,9.1h0Z"/>
        <path class="cls-8" d="m208,564l-.9-2.8c-3.4-10.6-16.5-18.3-16.6-18.4-3.2-2.2-5.4-4.5-6.6-6.8h0c-1.9-3.6-.5-7.2,1.7-9.1,2.6-2.3,6.1-2.4,9-.4,1.9,1.3,2.8,3,2.8,3.1,10,13.4,10.5,31.3,10.5,31.5l.1,2.9h0Zm-17.6-38.1c-1.7,0-3.2.7-4.2,1.6-1.8,1.6-3.3,4.6-1.5,8.1h0c1.1,2.2,3.3,4.4,6.3,6.5.5.3,11.4,6.7,15.9,16.2-.5-5.5-2.6-18.2-10.2-28.3,0-.1-.9-1.7-2.6-2.9-1.2-.8-2.5-1.2-3.7-1.2h0Z"/>
      </g>
      <g>
        <polygon class="cls-1" points="200.5 577.9 202.7 621.9 240.1 621.9 242.6 578.3 200.5 577.9"/>
        <path class="cls-8" d="m240.1,622.4h-37.4c-.2,0-.4-.2-.4-.4l-2.2-44c0-.1,0-.2.1-.3s.2-.1.3-.1l42.1.4c.1,0,.2,0,.3.1.1.1.1.2.1.3l-2.5,43.6c0,.2-.2.4-.4.4h0Zm-37-.9h36.6l2.5-42.8-41.2-.4,2.1,43.2h0Z"/>
      </g>
      <path class="cls-8" d="m229.6,578.1s-.1,0,0,0c-.3,0-.4-.2-.4-.5,0-.2,1.5-17.6,13.4-25.7,7.1-4.8,16.4-5.4,27.6-1.9.2.1.4.3.3.5s-.3.3-.5.3c-11-3.5-20-2.8-26.9,1.8-11.6,7.9-13,24.8-13,25-.1.3-.3.5-.5.5h0Z"/>
      <path class="cls-8" d="m223.1,577.8c-.2,0-.4-.1-.4-.3-6.6-23.7,9.4-37.4,12.7-39.9,1-.8,2.1-1.6,3.2-2.6,29.1-25.1,12.3-53.1,12.1-53.4-.1-.2-.1-.5.1-.6s.5-.1.6.1c.2.3,17.4,29-12.3,54.5-1.1,1-2.3,1.9-3.3,2.6-3.2,2.5-18.9,15.9-12.4,39,.1.2-.1.5-.3.6.1,0,0,0,0,0h0Z"/>
      <path class="cls-8" d="m220,578.1c-.1,0-.3-.1-.4-.2-10.3-16.6-2.6-37.8,0-43.8.6-1.5,1.1-2.8,1.5-4,7.2-26.1-14.8-41.9-15-42s-.2-.4-.1-.6c.1-.2.4-.2.6-.1.2.2,22.7,16.3,15.3,43-.4,1.2-.8,2.6-1.5,4.1-2.6,6-10.1,26.8,0,43,.1.2.1.5-.1.6h-.3Z"/>
      <path class="cls-8" d="m209.2,577.9h0c-.2,0-.4-.2-.4-.4,1.1-27.7-15.1-38.7-15.3-38.8-.2-.1-.2-.4-.1-.6s.4-.2.6-.1c.2.1,16.8,11.4,15.7,39.5-.1.2-.3.3-.5.4h0Z"/>
    </g>
    <g>
      <ellipse class="cls-8" cx="275.1" cy="218.4" rx="30.5" ry="13"/>
      <path class="cls-8" d="m275.1,231.9c-17.4,0-31-5.9-31-13.5s13.6-13.5,31-13.5,31,5.9,31,13.5-13.6,13.5-31,13.5Zm0-26c-16.5,0-30,5.6-30,12.5s13.5,12.5,30,12.5,30-5.6,30-12.5-13.5-12.5-30-12.5Z"/>
    </g>
    <g>
      <path class="cls-10" d="m236.9,80.2h9.5v27.2c0,2.5-.6,4.8-1.9,6.7-1.2,1.9-2.9,3.4-5.1,4.4-2.1,1-4.6,1.6-7.5,1.6-2.5,0-4.8-.4-6.8-1.3-2-.9-3.7-2.2-4.9-4-1.2-1.8-1.8-4.1-1.8-6.9h9.6c0,1,.2,1.9.6,2.6s.9,1.2,1.5,1.6c.6.4,1.4.5,2.3.5s1.7-.2,2.3-.6c.6-.4,1.1-1,1.5-1.7s.5-1.7.5-2.9v-27.2h.2,0Z"/>
      <path class="cls-10" d="m274,92c-.1-1.4-.7-2.5-1.7-3.3s-2.5-1.2-4.4-1.2c-1.2,0-2.3.2-3.1.5-.8.3-1.5.8-1.9,1.3-.4.6-.6,1.2-.6,1.9,0,.6.1,1.1.4,1.6.3.4.7.8,1.2,1.2.5.3,1.1.6,1.9.9s1.5.5,2.5.7l3.4.8c2,.4,3.7,1,5.2,1.7,1.5.7,2.8,1.5,3.8,2.5s1.8,2.1,2.3,3.4.8,2.7.8,4.3c0,2.5-.6,4.6-1.9,6.4-1.3,1.8-3.1,3.1-5.4,4.1-2.4.9-5.2,1.4-8.5,1.4s-6.2-.5-8.7-1.5-4.4-2.5-5.8-4.5-2.1-4.5-2.1-7.6h9.2c.1,1.3.4,2.3,1,3.2s1.5,1.5,2.5,1.9c1.1.4,2.3.7,3.7.7,1.3,0,2.4-.2,3.3-.5s1.6-.8,2.1-1.4c.5-.6.7-1.3.8-2.1,0-.7-.2-1.4-.7-1.9s-1.2-1-2.1-1.4-2.1-.8-3.6-1.1l-4.2-1c-3.5-.8-6.2-2-8.2-3.8-2-1.7-3-4.1-3-7.1,0-2.4.6-4.6,2-6.4,1.3-1.8,3.2-3.3,5.6-4.3s5.1-1.5,8.1-1.5,5.8.5,8.1,1.5c2.3,1,4,2.5,5.3,4.3,1.3,1.9,1.9,4,1.9,6.4l-9.2-.1h0Z"/>
    </g>
    <g>
      <path class="cls-1" d="m567.8,315.1v-22.5h5.4v9h8.9v-9h5.4v22.5h-5.4v-9.1h-8.9v9.1h-5.4Z"/>
      <path class="cls-1" d="m590.3,297v-4.4h19.1v4.4h-6.8v18.1h-5.4v-18.1h-6.9,0Z"/>
      <path class="cls-1" d="m612,292.5h6.7l5.7,14h.3l5.7-14h6.7v22.5h-5.3v-13.8h-.2l-5.4,13.7h-3.4l-5.4-13.8h-.2v13.9h-5.3v-22.5h.1Z"/>
      <path class="cls-1" d="m640.6,315.1v-22.5h5.4v18.1h9.4v4.4h-14.8Z"/>
    </g>
  </g>
</svg>