<?xml version="1.0" standalone="no"?>
<!DOCTYPE svg PUBLIC "-//W3C//DTD SVG 20010904//EN"
 "http://www.w3.org/TR/2001/REC-SVG-20010904/DTD/svg10.dtd">
<svg version="1.0" xmlns="http://www.w3.org/2000/svg"
 width="500.000000pt" height="500.000000pt" viewBox="0 0 500.000000 500.000000"
 preserveAspectRatio="xMidYMid meet">

<g transform="translate(0.000000,500.000000) scale(0.100000,-0.100000)"
fill="#000000" stroke="none">
<path d="M420 2625 l0 -1385 125 0 125 0 0 -125 0 -125 1958 0 1957 0 -3 1385
-2 1385 -125 0 -125 0 0 125 0 125 -1955 0 -1955 0 0 -1385z m3840 0 l0 -1315
-1890 0 -1890 0 0 1315 0 1315 1890 0 1890 0 0 -1315z"/>
<path d="M2250 2622 l0 -752 95 0 95 0 2 457 3 456 225 -314 c124 -173 241
-335 260 -361 18 -27 36 -48 39 -48 3 0 125 169 271 376 l265 376 3 -471 2
-471 95 0 95 0 0 752 c0 432 -4 748 -9 742 -5 -5 -167 -231 -361 -502 -194
-271 -356 -492 -361 -490 -4 2 -164 224 -354 493 -191 270 -351 494 -356 500
-5 5 -9 -278 -9 -743z"/>
<path d="M1040 2600 l0 -730 100 0 100 0 0 270 0 270 148 0 c217 0 321 31 422
126 89 83 130 194 130 351 0 185 -76 316 -227 392 -85 43 -152 51 -420 51
l-253 0 0 -730z m558 525 c55 -22 116 -93 138 -157 38 -114 -6 -251 -100 -315
-67 -46 -102 -53 -258 -53 l-138 0 0 276 0 277 158 -5 c118 -4 168 -10 200
-23z"/>
</g>
</svg>
